<svg width="100%" height="100%" viewBox="0 0 15 20" fill="none" xmlns="http://www.w3.org/2000/svg">
<path fill-rule="evenodd" clip-rule="evenodd" d="M9.61379 0.309956C9.89044 0.427736 10.07 0.699346 10.07 1.00002V7.99821H14C14.2667 7.99821 14.5133 8.13984 14.6478 8.3702C14.7822 8.60055 14.7842 8.88496 14.653 9.11716L14.1609 9.98802C12.2948 13.2907 9.9149 16.2753 7.11058 18.8298L6.31506 19.5545C6.0955 19.7545 5.7786 19.8061 5.50693 19.6861C5.23526 19.566 5.06 19.297 5.06 19V12.0612H1C0.585786 12.0612 0.25 11.7254 0.25 11.3112C0.25 11.177 0.285225 11.0511 0.346932 10.9421C2.10572 7.69066 4.3575 4.73119 7.02222 2.16896L8.80017 0.459394C9.0169 0.250995 9.33715 0.192176 9.61379 0.309956ZM2.28458 10.5612H5.81C6.22421 10.5612 6.56 10.8969 6.56 11.3112V17.2945C8.9786 15.009 11.0517 12.3827 12.7134 9.49821H9.32C8.90579 9.49821 8.57 9.16242 8.57 8.74821V2.76164L8.06188 3.25021C5.8111 5.41442 3.86782 7.87444 2.28458 10.5612Z" fill="black"/>
</svg>
