<svg  width="100%" height="100%" viewBox="-2 -2 15 15" fill="none" xmlns="http://www.w3.org/2000/svg">
<path d="M9.06584 1.9948C9.35874 1.70191 9.35874 1.22703 9.06584 0.93414C8.77295 0.641247 8.29808 0.641247 8.00518 0.93414L4.99999 3.93934L1.99479 0.93414C1.70189 0.641247 1.22702 0.641247 0.934126 0.93414C0.641233 1.22703 0.641233 1.70191 0.934126 1.9948L3.93932 5L0.934117 8.00521C0.641224 8.2981 0.641224 8.77297 0.934117 9.06587C1.22701 9.35876 1.70188 9.35876 1.99478 9.06587L4.99999 6.06066L8.00519 9.06587C8.29809 9.35876 8.77296 9.35876 9.06585 9.06587C9.35875 8.77298 9.35875 8.2981 9.06585 8.00521L6.06065 5L9.06584 1.9948Z" fill="black"/>
</svg>
