<svg width="40" height="40" viewBox="0 0 40 40" fill="none" xmlns="http://www.w3.org/2000/svg">
<path d="M6.66648 25.6012C8.76321 27.0022 11.2283 27.75 13.75 27.75C17.1315 27.75 20.3745 26.4067 22.7656 24.0156C25.1567 21.6245 26.5 18.3815 26.5 15C26.5 12.4783 25.7522 10.0132 24.3512 7.91648C22.9503 5.81976 20.959 4.18556 18.6292 3.22054C16.2995 2.25552 13.7359 2.00303 11.2626 2.49499C8.78935 2.98695 6.51751 4.20127 4.73439 5.98439C2.95127 7.76751 1.73695 10.0393 1.24499 12.5126C0.753032 14.9859 1.00552 17.5495 1.97054 19.8792C2.93556 22.209 4.56976 24.2003 6.66648 25.6012ZM8.3332 6.89318C9.93657 5.82183 11.8216 5.25001 13.75 5.25001C16.3359 5.25001 18.8158 6.27723 20.6443 8.10571C22.4728 9.93419 23.5 12.4141 23.5 15C23.5 16.9284 22.9282 18.8134 21.8568 20.4168C20.7855 22.0202 19.2627 23.2699 17.4812 24.0078C15.6996 24.7458 13.7392 24.9389 11.8479 24.5627C9.95656 24.1865 8.21928 23.2579 6.85571 21.8943C5.49215 20.5307 4.56356 18.7935 4.18735 16.9021C3.81114 15.0108 4.00423 13.0504 4.74218 11.2688C5.48013 9.48726 6.72982 7.96452 8.3332 6.89318Z" fill="#121212" stroke="black" stroke-width="0.5"/>
<path d="M35 37.4249C35.8215 37.4259 36.6235 37.1739 37.2968 36.7032C37.9702 36.2324 38.4822 35.5657 38.7634 34.7936C39.0445 34.0216 39.0811 33.1817 38.8681 32.3881C38.6551 31.5945 38.2029 30.8858 37.573 30.3583L29.9107 23.9334C29.0974 23.251 28.0463 22.9195 26.9887 23.0121C25.931 23.1046 24.9534 23.6135 24.271 24.4267C23.5885 25.24 23.2571 26.2911 23.3496 27.3488C23.3954 27.8725 23.5439 28.382 23.7867 28.8483C24.0294 29.3146 24.3616 29.7285 24.7643 30.0664L24.7644 30.0665L32.4269 36.4915L32.427 36.4916C33.1482 37.0956 34.0593 37.4261 35 37.4249ZM35 37.4249C34.9999 37.4249 34.9998 37.4249 34.9997 37.4249L35 37.1749L35.0003 37.4249C35.0002 37.4249 35.0001 37.4249 35 37.4249ZM27.3375 25.9999L27.338 25.9999C27.5714 25.9995 27.7976 26.0807 27.9774 26.2294C27.9776 26.2296 27.9778 26.2298 27.978 26.2299L35.6392 32.6664L35.6392 32.6664L35.6411 32.6679C35.743 32.7519 35.8273 32.8552 35.8891 32.9719C35.9508 33.0885 35.9888 33.2161 36.001 33.3474C36.0124 33.478 35.998 33.6096 35.9586 33.7347C35.9191 33.8598 35.8555 33.9759 35.7712 34.0765C35.6866 34.177 35.583 34.2598 35.4663 34.3202C35.3496 34.3807 35.2221 34.4175 35.0911 34.4287C34.9602 34.4398 34.8283 34.4251 34.7031 34.3852C34.5778 34.3453 34.4617 34.2812 34.3613 34.1964L34.3606 34.1959L26.6981 27.7709L26.6981 27.7709L26.6959 27.7691C26.542 27.6429 26.4291 27.4736 26.3719 27.283C26.3147 27.0923 26.3157 26.8889 26.3748 26.6988C26.4338 26.5087 26.5483 26.3406 26.7035 26.2159C26.8561 26.0933 27.0413 26.0183 27.2361 25.9999L27.3375 25.9999Z" fill="#121212" stroke="black" stroke-width="0.5"/>
<path d="M25.0005 26.5001V26.5001L25.0046 26.5001C25.2199 26.4961 25.4318 26.4458 25.6259 26.3526C25.8201 26.2594 25.9919 26.1255 26.1296 25.9601C26.2559 25.8085 26.351 25.6335 26.4096 25.4452C26.4682 25.2568 26.489 25.0586 26.4709 24.8622C26.4528 24.6657 26.3961 24.4748 26.304 24.3002C26.212 24.1258 26.0866 23.9712 25.9348 23.8453C25.9347 23.8452 25.9346 23.8452 25.9346 23.8451L23.01 21.408L23.0098 21.4078C22.7035 21.1533 22.3087 21.0308 21.9121 21.0674C21.5156 21.1039 21.1498 21.2965 20.8952 21.6028C20.6407 21.9091 20.5182 22.3039 20.5548 22.7005C20.5913 23.097 20.7839 23.4628 21.0902 23.7174L21.0908 23.7178L24.0405 26.1551C24.3104 26.3787 24.65 26.5008 25.0005 26.5001Z" fill="#121212" stroke="black" stroke-width="0.5"/>
</svg>
