<svg width="40" height="40" viewBox="0 0 40 40" fill="none" xmlns="http://www.w3.org/2000/svg">
<path d="M9.36189 9.15806C9.36189 9.15806 6.20189 9.50806 4.09389 9.74206C3.90389 9.76506 3.73589 9.89206 3.67289 10.0851C3.60989 10.2781 3.67289 10.4791 3.81289 10.6061C5.37889 12.0351 7.73189 14.1751 7.73189 14.1751C7.72989 14.1751 7.08589 17.2881 6.65789 19.3651C6.62189 19.5531 6.68989 19.7521 6.85389 19.8711C7.01689 19.9901 7.22689 19.9921 7.39189 19.8991C9.23589 18.8511 11.9979 17.2751 11.9979 17.2751C11.9979 17.2751 14.7609 18.8511 16.6019 19.9001C16.7699 19.9921 16.9799 19.9901 17.1429 19.8711C17.3069 19.7521 17.3749 19.5531 17.3379 19.3661C16.9099 17.2881 16.2669 14.1751 16.2669 14.1751C16.2669 14.1751 18.6199 12.0351 20.1859 10.6091C20.3259 10.4781 20.3879 10.2771 20.3259 10.0851C20.2639 9.89306 20.0959 9.76606 19.9059 9.74406C17.7979 9.50806 14.6369 9.15806 14.6369 9.15806C14.6369 9.15806 13.3269 6.26006 12.4539 4.32806C12.3719 4.15506 12.1999 4.03406 11.9979 4.03406C11.7959 4.03406 11.6229 4.15606 11.5449 4.32806C10.6709 6.26006 9.36189 9.15806 9.36189 9.15806Z" fill="#121212"/>
</svg>
